<svg width="62" height="62" viewBox="0 0 62 62" fill="none" xmlns="http://www.w3.org/2000/svg">
<g filter="url(#filter0_d_381_3019)">
<rect x="15" y="15" width="32" height="32" rx="16" fill="#111111"/>
<rect x="15.5" y="15.5" width="31" height="31" rx="15.5" stroke="#FA6600"/>
<g clip-path="url(#clip0_381_3019)">
<mask id="mask0_381_3019" style="mask-type:luminance" maskUnits="userSpaceOnUse" x="24" y="19" width="14" height="13">
<path d="M24 19.8394H37.9607V31.1851H24V19.8394Z" fill="white"/>
</mask>
<g mask="url(#mask0_381_3019)">
<path fill-rule="evenodd" clip-rule="evenodd" d="M24.8623 26.533H37.0985V24.5975H24.8623V26.533ZM34.6322 28.2635C34.6322 28.2635 33.053 29.7123 30.9804 30.2351C28.9078 29.7123 27.3293 28.2635 27.3293 28.2635C27.7999 27.9803 27.9587 27.6148 28.0116 27.3884H33.9494C34.0027 27.6148 34.161 27.9803 34.6322 28.2635ZM27.3157 22.4821C27.3157 22.4821 29.095 22.5759 30.9804 21.1674C32.8659 22.5759 34.645 22.4821 34.645 22.4821C34.0681 23.0705 33.9721 23.54 33.9604 23.7421H28.0001C27.9886 23.54 27.8928 23.0705 27.3157 22.4821ZM37.9607 23.7421H34.8937C34.9116 23.2526 35.5414 23.0185 35.5414 23.0185V21.7577C32.1165 21.57 30.9804 19.8394 30.9804 19.8394C30.9804 19.8394 29.8442 21.57 26.4195 21.7577V23.0185C26.4195 23.0185 27.0492 23.2526 27.0672 23.7421H24V27.3884H27.0569C26.8822 28.017 26.0112 28.1762 26.0112 28.1762C28.5065 30.7719 30.9804 31.1875 30.9804 31.1875C30.9804 31.1875 33.4546 30.7719 35.9495 28.1762C35.9495 28.1762 35.0783 28.017 34.9042 27.3884H37.9607V23.7421Z" fill="#FA6600"/>
</g>
<path fill-rule="evenodd" clip-rule="evenodd" d="M36.3694 28.3557C36.2618 28.3557 36.1743 28.268 36.1743 28.1592C36.1743 28.0513 36.2618 27.9633 36.3694 27.9633C36.4761 27.9633 36.5647 28.0513 36.5647 28.1592C36.5647 28.268 36.4761 28.3557 36.3694 28.3557ZM36.3694 27.936C36.2472 27.936 36.1469 28.0366 36.1469 28.1592C36.1469 28.2826 36.2472 28.3822 36.3694 28.3822C36.4907 28.3822 36.5911 28.2826 36.5911 28.1592C36.5911 28.0366 36.4907 27.936 36.3694 27.936Z" fill="#FA6600"/>
<path fill-rule="evenodd" clip-rule="evenodd" d="M36.374 28.1508H36.3109V28.0586H36.374C36.4068 28.0586 36.436 28.063 36.435 28.1033C36.4341 28.1445 36.4077 28.1508 36.374 28.1508ZM36.4669 28.2148C36.4662 28.1984 36.4633 28.1865 36.4587 28.1792C36.4542 28.1728 36.447 28.1673 36.436 28.1646C36.4615 28.1528 36.4732 28.1299 36.4732 28.1024C36.4732 28.0868 36.4706 28.074 36.4644 28.063C36.447 28.0292 36.4122 28.0264 36.3803 28.0264H36.2745V28.2991H36.3109V28.1828H36.3712C36.3722 28.1828 36.3722 28.1828 36.373 28.1828C36.3968 28.1828 36.4122 28.1855 36.4186 28.1911C36.425 28.1965 36.4296 28.2084 36.4305 28.2268L36.4324 28.2614C36.4324 28.2716 36.4341 28.2898 36.4396 28.2991H36.4816C36.4744 28.288 36.4715 28.2743 36.4697 28.2606L36.4669 28.2148Z" fill="#FA6600"/>
</g>
<path d="M28.3197 38.7385L27.8517 40.1875H26.4297L28.7247 33.7525H30.3987L32.6577 40.1875H30.9927L30.5517 38.7385H28.3197ZM29.4807 35.2195L28.6797 37.6405H30.2187L29.4987 35.2195H29.4807ZM34.9105 40.1875H33.3445L33.3535 39.3415V34.5985L33.3445 33.7525H34.9105L34.9015 34.5985V39.3415L34.9105 40.1875Z" fill="#FA6600"/>
</g>
<defs>
<filter id="filter0_d_381_3019" x="0.3" y="0.3" width="61.4" height="61.4" filterUnits="userSpaceOnUse" color-interpolation-filters="sRGB">
<feFlood flood-opacity="0" result="BackgroundImageFix"/>
<feColorMatrix in="SourceAlpha" type="matrix" values="0 0 0 0 0 0 0 0 0 0 0 0 0 0 0 0 0 0 127 0" result="hardAlpha"/>
<feOffset/>
<feGaussianBlur stdDeviation="7.35"/>
<feComposite in2="hardAlpha" operator="out"/>
<feColorMatrix type="matrix" values="0 0 0 0 0.980392 0 0 0 0 0.4 0 0 0 0 0 0 0 0 0.5 0"/>
<feBlend mode="normal" in2="BackgroundImageFix" result="effect1_dropShadow_381_3019"/>
<feBlend mode="normal" in="SourceGraphic" in2="effect1_dropShadow_381_3019" result="shape"/>
</filter>
<clipPath id="clip0_381_3019">
<rect width="14" height="11.375" fill="white" transform="translate(24 19.8125)"/>
</clipPath>
</defs>
</svg>
