<svg width="33" height="32" viewBox="0 0 33 32" fill="none" xmlns="http://www.w3.org/2000/svg">
<circle cx="16.5" cy="16" r="15.5" fill="black" stroke="white"/>
<path fill-rule="evenodd" clip-rule="evenodd" d="M8.61177 17.6303H24.3883V15.1349H8.61177V17.6303ZM21.2084 19.8615C21.2084 19.8615 19.1723 21.7294 16.5 22.4035C13.8278 21.7294 11.7926 19.8615 11.7926 19.8615C12.3993 19.4964 12.604 19.0251 12.6723 18.7332H20.3281C20.3968 19.0251 20.6009 19.4964 21.2084 19.8615ZM11.775 12.4073C11.775 12.4073 14.0691 12.5283 16.5 10.7123C18.931 12.5283 21.225 12.4073 21.225 12.4073C20.4811 13.166 20.3573 13.7714 20.3422 14.0319H12.6574C12.6426 13.7714 12.5192 13.166 11.775 12.4073ZM25.5 14.0319H21.5456C21.5686 13.4008 22.3806 13.099 22.3806 13.099V11.4733C17.9649 11.2313 16.5 9 16.5 9C16.5 9 15.0352 11.2313 10.6196 11.4733V13.099C10.6196 13.099 11.4314 13.4008 11.4546 14.0319H7.5V18.7332H11.4414C11.2161 19.5436 10.0931 19.749 10.0931 19.749C13.3104 23.0957 16.5 23.6315 16.5 23.6315C16.5 23.6315 19.6901 23.0957 22.9069 19.749C22.9069 19.749 21.7836 19.5436 21.5591 18.7332H25.5V14.0319Z" fill="white"/>
</svg>
