<svg width="24" height="20" viewBox="0 0 24 20" fill="none" xmlns="http://www.w3.org/2000/svg">
<g clip-path="url(#clip0_337_2925)">
<mask id="mask0_337_2925" style="mask-type:luminance" maskUnits="userSpaceOnUse" x="0" y="0" width="24" height="20">
<path d="M0 0.0458984H23.9327V19.4957H0V0.0458984Z" fill="white"/>
</mask>
<g mask="url(#mask0_337_2925)">
<path fill-rule="evenodd" clip-rule="evenodd" d="M1.47821 11.5207H22.4546V8.20278H1.47821V11.5207ZM18.2266 14.4872C18.2266 14.4872 15.5194 16.9709 11.9663 17.8672C8.41345 16.9709 5.70745 14.4872 5.70745 14.4872C6.51414 14.0018 6.78628 13.3752 6.87703 12.9871H17.0561C17.1475 13.3752 17.4189 14.0018 18.2266 14.4872ZM5.684 4.57626C5.684 4.57626 8.73421 4.7371 11.9663 2.32256C15.1986 4.7371 18.2486 4.57626 18.2486 4.57626C17.2597 5.585 17.095 6.3899 17.075 6.73633H6.85724C6.83759 6.3899 6.67345 5.585 5.684 4.57626ZM23.9327 6.73633H18.6749C18.7055 5.89714 19.7852 5.49594 19.7852 5.49594V3.33441C13.9141 3.01266 11.9663 0.0458984 11.9663 0.0458984C11.9663 0.0458984 10.0187 3.01266 4.14779 3.33441V5.49594C4.14779 5.49594 5.22717 5.89714 5.258 6.73633H0V12.9871H5.24041C4.9409 14.0647 3.44779 14.3377 3.44779 14.3377C7.72545 18.7874 11.9663 19.4998 11.9663 19.4998C11.9663 19.4998 16.2079 18.7874 20.4849 14.3377C20.4849 14.3377 18.9914 14.0647 18.6929 12.9871H23.9327V6.73633Z" fill="white"/>
</g>
<path fill-rule="evenodd" clip-rule="evenodd" d="M21.2048 14.6453C21.0203 14.6453 20.8703 14.4948 20.8703 14.3083C20.8703 14.1234 21.0203 13.9726 21.2048 13.9726C21.3877 13.9726 21.5395 14.1234 21.5395 14.3083C21.5395 14.4948 21.3877 14.6453 21.2048 14.6453ZM21.2048 13.9258C20.9953 13.9258 20.8232 14.0982 20.8232 14.3083C20.8232 14.5199 20.9953 14.6906 21.2048 14.6906C21.4128 14.6906 21.5848 14.5199 21.5848 14.3083C21.5848 14.0982 21.4128 13.9258 21.2048 13.9258Z" fill="white"/>
<path fill-rule="evenodd" clip-rule="evenodd" d="M21.2125 14.2935H21.1044V14.1353H21.2125C21.2688 14.1353 21.3188 14.1428 21.3171 14.2119C21.3155 14.2825 21.2703 14.2935 21.2125 14.2935ZM21.3718 14.4031C21.3705 14.3751 21.3655 14.3546 21.3576 14.342C21.3501 14.3312 21.3376 14.3216 21.3188 14.317C21.3625 14.2968 21.3826 14.2575 21.3826 14.2104C21.3826 14.1836 21.3781 14.1618 21.3674 14.1428C21.3376 14.0848 21.278 14.0801 21.2234 14.0801H21.042V14.5476H21.1044V14.3483H21.2077C21.2094 14.3483 21.2094 14.3483 21.2108 14.3483C21.2516 14.3483 21.278 14.3529 21.289 14.3624C21.2999 14.3717 21.3079 14.3922 21.3093 14.4236L21.3125 14.483C21.3125 14.5004 21.3155 14.5318 21.325 14.5476H21.397C21.3846 14.5285 21.3796 14.5051 21.3766 14.4817L21.3718 14.4031Z" fill="white"/>
</g>
<defs>
<clipPath id="clip0_337_2925">
<rect width="24" height="19.5" fill="white"/>
</clipPath>
</defs>
</svg>
