<svg width="25" height="24" viewBox="0 0 25 24" fill="none" xmlns="http://www.w3.org/2000/svg">
<g clip-path="url(#clip0_337_2914)">
<path d="M12.5 2C8.63 2 5.5 5.13 5.5 9C5.5 14.25 12.5 22 12.5 22C12.5 22 19.5 14.25 19.5 9C19.5 5.13 16.37 2 12.5 2ZM7.5 9C7.5 6.24 9.74 4 12.5 4C15.26 4 17.5 6.24 17.5 9C17.5 11.88 14.62 16.19 12.5 18.88C10.42 16.21 7.5 11.85 7.5 9Z" fill="white"/>
<path d="M12.5 11.5C13.8807 11.5 15 10.3807 15 9C15 7.61929 13.8807 6.5 12.5 6.5C11.1193 6.5 10 7.61929 10 9C10 10.3807 11.1193 11.5 12.5 11.5Z" fill="white"/>
</g>
<defs>
<clipPath id="clip0_337_2914">
<rect width="24" height="24" fill="white" transform="translate(0.5)"/>
</clipPath>
</defs>
</svg>
